<svg xmlns="http://www.w3.org/2000/svg" width="200" height="54" viewBox="0 0 200 54"><title>venuebook_slack_logo</title><path d="M139,34.72a1.61,1.61,0,0,0-3.06,1l4.16,12.8a1.61,1.61,0,0,0,3.07-1Z" fill="#e9a823"/><path d="M132.58,36.78a1.61,1.61,0,0,0-3,1l4.12,12.81a1.61,1.61,0,0,0,3.06-1Z" fill="#3fb991"/><path d="M144.27,45.33a1.61,1.61,0,0,0-1-3.07l-12.79,4.17a1.62,1.62,0,0,0-.84,2.12,1.6,1.6,0,0,0,1.77.94Z" fill="#e11765"/><path d="M133.14,48.94l3.06-1-1-3.07-3.07,1Z" fill="#472a49"/><path d="M139.59,46.85l3.06-1-1-3.05-3.07,1Z" fill="#cd2027"/><path d="M142.17,38.87a1.61,1.61,0,0,0-1-3L128.37,40a1.63,1.63,0,0,0-1,2,1.6,1.6,0,0,0,2,1.1h0Z" fill="#71cbdc"/><path d="M131,42.5l3.07-1-1-3.06-3.06,1Z" fill="#1d947e"/><path d="M137.49,40.4l3.06-1-1-3.07-3.06,1Z" fill="#66873a"/><path d="M157.27,38.09c.56.24.61.43.16,1.28s-.57.93-1.12.69a6.52,6.52,0,0,0-2.18-.49c-.93,0-1.57.34-1.57.85,0,1.71,5.43.78,5.43,4.42,0,1.86-1.57,3-3.91,3a9.1,9.1,0,0,1-3.81-.93c-.53-.26-.56-.42-.11-1.28s.52-.85,1.09-.61a7.9,7.9,0,0,0,2.79.69c.87,0,1.44-.35,1.44-.87,0-1.65-5.52-.86-5.52-4.38,0-1.86,1.56-3.11,3.88-3.11A9.35,9.35,0,0,1,157.27,38.09Z" fill="#3c444c"/><path d="M161.65,33.79v13.5a.48.48,0,0,1-.53.43H159.7a.48.48,0,0,1-.53-.43V33.79c0-.67.19-.74,1.24-.74S161.65,33.14,161.65,33.79Z" fill="#3c444c"/><path d="M171.76,41.44v5.77a.5.5,0,0,1-.49.52h-1.44a.5.5,0,0,1-.54-.47.28.28,0,0,1,0-.09v-.62a4,4,0,0,1-3,1.28c-2.12,0-3.54-1.22-3.54-3s1.61-3.26,4-3.27a6.31,6.31,0,0,1,2.43.45v-.67c0-1.07-.82-1.72-2.24-1.72a4.85,4.85,0,0,0-2.16.65c-.51.29-.63.27-1.18-.54s-.51-.94,0-1.3a6.85,6.85,0,0,1,3.57-1.05C170,37.33,171.76,38.83,171.76,41.44Zm-6.52,3.36c0,.69.58,1.15,1.47,1.15a3.08,3.08,0,0,0,2.61-1.38v-.94a5.43,5.43,0,0,0-1.87-.34c-1.37,0-2.25.61-2.25,1.46Z" fill="#3c444c"/><path d="M181.4,38.11c.51.3.53.47,0,1.34s-.63.88-1.2.59a3.85,3.85,0,0,0-1.72-.47,2.8,2.8,0,0,0-3,2.61,2,2,0,0,0,0,.35,2.84,2.84,0,0,0,2.61,3.06h.36a4.31,4.31,0,0,0,1.86-.51c.53-.3.64-.28,1.18.51s.48.93,0,1.23a6,6,0,0,1-3.16.93c-3.3,0-5.5-2.11-5.5-5.27s2.2-5.24,5.53-5.24A6.28,6.28,0,0,1,181.4,38.11Z" fill="#3c444c"/><path d="M192.15,46.45c.41.52.25.7-.79,1.08s-1.19.36-1.56-.12l-2.94-3.94-1.33,1.27v2.55a.48.48,0,0,1-.52.43h-1.42a.48.48,0,0,1-.53-.43V33.79c0-.67.19-.74,1.24-.74s1.23.09,1.23.74v7.65l4-3.88c.44-.43.69-.39,1.49.13s.93.73.51,1.14l-3,2.92Z" fill="#3c444c"/><path d="M97.07,37h1.71v4.14h.11l4-4.14h2.32l-4.58,4.52,4.86,5.24h-2.38L98.89,42h-.11V46.8H97.07Zm-10.76,4.8a3.8,3.8,0,0,0,.23,1.43,3.18,3.18,0,0,0,1.7,1.93,3.57,3.57,0,0,0,1.38.28A3.5,3.5,0,0,0,91,45.2a2.48,2.48,0,0,0,1-.77,3.66,3.66,0,0,0,.66-1.16,4,4,0,0,0,.22-1.43,3.7,3.7,0,0,0-.22-1.38,3.47,3.47,0,0,0-.66-1.1,3.16,3.16,0,0,0-2.43-1,3.82,3.82,0,0,0-1.38.28,2.8,2.8,0,0,0-1,.77,3.47,3.47,0,0,0-.66,1.1A5.53,5.53,0,0,0,86.31,41.84ZM84.5,42a5.32,5.32,0,0,1,1.43-3.8,4.33,4.33,0,0,1,1.6-1,6.12,6.12,0,0,1,2.09-.39,6.21,6.21,0,0,1,2.1.33,4.3,4.3,0,0,1,1.65,1.05,4.46,4.46,0,0,1,1,1.6,6,6,0,0,1,0,4.25,5.48,5.48,0,0,1-1,1.6,4.23,4.23,0,0,1-1.65,1,6.42,6.42,0,0,1-2.1.39,5.15,5.15,0,0,1-2.09-.39,4.65,4.65,0,0,1-2.65-2.64A5.14,5.14,0,0,1,84.5,42Zm-10.21-.11a4,4,0,0,0,.22,1.43,3.88,3.88,0,0,0,.67,1.16,3.66,3.66,0,0,0,1,.77,3.57,3.57,0,0,0,1.38.28A3.54,3.54,0,0,0,79,45.2a2.48,2.48,0,0,0,1-.77,4.08,4.08,0,0,0,.66-1.16,4,4,0,0,0,.22-1.43,3.7,3.7,0,0,0-.22-1.38,3.88,3.88,0,0,0-.66-1.1,3.16,3.16,0,0,0-2.43-1,3.78,3.78,0,0,0-1.38.28,2.8,2.8,0,0,0-1,.77,3.68,3.68,0,0,0-.67,1.1A3.92,3.92,0,0,0,74.29,41.84ZM72.47,42a5.45,5.45,0,0,1,.39-2.15,5.67,5.67,0,0,1,1-1.65,4.77,4.77,0,0,1,1.65-1,6.23,6.23,0,0,1,2.1-.39,6.15,6.15,0,0,1,2.09.33,4.53,4.53,0,0,1,2.7,2.65,6,6,0,0,1,0,4.25,5.45,5.45,0,0,1-1,1.6,4.27,4.27,0,0,1-1.66,1,5.82,5.82,0,0,1-4.19,0,5.45,5.45,0,0,1-1.65-1,4.64,4.64,0,0,1-1-1.6A4.23,4.23,0,0,1,72.47,42Zm-7.22,3.36h1.6a3.79,3.79,0,0,0,.72-.05,3,3,0,0,0,.71-.22,1,1,0,0,0,.5-.44,1.59,1.59,0,0,0,.22-.77,1.09,1.09,0,0,0-.5-1A2.91,2.91,0,0,0,67,42.45H65.3v2.86Zm0-4.3h1.6a2.35,2.35,0,0,0,1.32-.33,1,1,0,0,0,.44-.88,1.1,1.1,0,0,0-.44-.94,2.72,2.72,0,0,0-1.49-.33H65.25V41Zm-1.71-4h3.8a8.34,8.34,0,0,1,1.11.11,2.55,2.55,0,0,1,.94.44,2.5,2.5,0,0,1,.66.78,2.38,2.38,0,0,1,.27,1.1,2.27,2.27,0,0,1-.44,1.38,3.14,3.14,0,0,1-1.21.77v.06a2.14,2.14,0,0,1,.83.27,1.57,1.57,0,0,1,.66.5,3.39,3.39,0,0,1,.44.71,2.7,2.7,0,0,1-.17,2.21,3.13,3.13,0,0,1-.82.88,2.63,2.63,0,0,1-1.16.44,5.6,5.6,0,0,1-1.38.11H63.54V37Zm-9,0H61v1.6H56.26v2.43h4.47v1.6H56.26v2.64h5V46.8H54.55V37Zm-2.7,6.18a3.78,3.78,0,0,1-.33,1.6A4,4,0,0,1,50.69,46a3.42,3.42,0,0,1-1.21.77,4.68,4.68,0,0,1-1.55.28,4.4,4.4,0,0,1-1.54-.28A3.67,3.67,0,0,1,45.12,46a4,4,0,0,1-.83-1.21,3.77,3.77,0,0,1-.27-1.6V37h1.76v6.12a5,5,0,0,0,.11.78,1.84,1.84,0,0,0,.39.71,2.13,2.13,0,0,0,.66.55,2.51,2.51,0,0,0,2.1,0,2.25,2.25,0,0,0,.66-.55,3.21,3.21,0,0,0,.38-.71,3.49,3.49,0,0,0,.11-.78V37h1.66v6.18ZM32.49,37h2.32l4.74,7.28V37h1.77V46.8H39.11l-4.85-7.5v7.5H32.49Zm-8.93,0H30v1.6H25.27v2.43h4.47v1.6H25.27v2.64h5V46.8H23.56ZM12.64,37h2l2.64,7.39L20,37h1.88L18,46.8H16.5Z" fill="#464342"/><path d="M111.84,40.73h2.88V37.84a1.12,1.12,0,0,1,1.12-1.11H116a1.11,1.11,0,0,1,1.11,1.11v2.89H120a1.11,1.11,0,0,1,1.11,1.11V42A1.12,1.12,0,0,1,120,43.12h-2.89V46A1.12,1.12,0,0,1,116,47.12h-.16A1.12,1.12,0,0,1,114.72,46V43.12h-2.88A1.11,1.11,0,0,1,110.73,42v-.16A1.11,1.11,0,0,1,111.84,40.73Z" fill="#464342"/><path d="M22.45,9A3.32,3.32,0,0,0,20.9,7.79a5.55,5.55,0,0,0-2-.39,5.05,5.05,0,0,0-1.23.15A3.54,3.54,0,0,0,16.57,8a2.49,2.49,0,0,0-.76.82,2.42,2.42,0,0,0-.29,1.2,1.86,1.86,0,0,0,.72,1.59,7,7,0,0,0,1.79,1q1.06.4,2.34.78a9.52,9.52,0,0,1,2.34,1,5.81,5.81,0,0,1,1.79,1.77,5.22,5.22,0,0,1,.72,2.91,6.5,6.5,0,0,1-.6,2.88A6,6,0,0,1,23,24a7.09,7.09,0,0,1-2.39,1.21,9.94,9.94,0,0,1-2.86.41A10.52,10.52,0,0,1,14.08,25a7,7,0,0,1-3-2.13l2.75-2.66a4.54,4.54,0,0,0,1.74,1.57,4.9,4.9,0,0,0,2.3.57,4.64,4.64,0,0,0,1.27-.18,3.93,3.93,0,0,0,1.16-.52,2.69,2.69,0,0,0,.83-.88,2.35,2.35,0,0,0,.32-1.23,2.14,2.14,0,0,0-.72-1.73,6.51,6.51,0,0,0-1.79-1c-.71-.28-1.49-.55-2.34-.8a9.87,9.87,0,0,1-2.34-1,5.79,5.79,0,0,1-1.79-1.73,5.2,5.2,0,0,1-.72-2.91,5.42,5.42,0,0,1,.65-2.74,5.92,5.92,0,0,1,1.7-1.92,7.45,7.45,0,0,1,2.41-1.14,10.3,10.3,0,0,1,5.91.11,7.34,7.34,0,0,1,2.73,1.62Z" fill="#464342"/><path d="M29.29,4.63h3.64V21.79h8.69v3.29H29.29Z" fill="#464342"/><path d="M51.18,4.63h3.15l8.81,20.45H59l-1.9-4.68H48.21l-1.85,4.68H42.29ZM55.8,17.28,52.66,9l-3.21,8.32Z" fill="#464342"/><path d="M79.74,9.43a6,6,0,0,0-2.18-1.62,5.87,5.87,0,0,0-2.12-.41A7,7,0,0,0,72.57,8a6.43,6.43,0,0,0-2.21,1.56,7.06,7.06,0,0,0-1.43,2.32,7.93,7.93,0,0,0-.51,2.86,8.68,8.68,0,0,0,.51,3,7,7,0,0,0,1.43,2.4,6.79,6.79,0,0,0,2.21,1.59,7,7,0,0,0,2.87.58,5.21,5.21,0,0,0,2.41-.6A6.44,6.44,0,0,0,80,19.82L83,22a8.23,8.23,0,0,1-3.38,2.77,10.53,10.53,0,0,1-4.25.87,11.92,11.92,0,0,1-4.34-.77,9.93,9.93,0,0,1-3.41-2.16,10.09,10.09,0,0,1-2.24-3.37,11.33,11.33,0,0,1-.81-4.36,11.84,11.84,0,0,1,.81-4.46,10,10,0,0,1,2.24-3.42,9.83,9.83,0,0,1,3.41-2.18,11.92,11.92,0,0,1,4.34-.77,10,10,0,0,1,3.86.74,8.93,8.93,0,0,1,3.3,2.5Z" fill="#464342"/><path d="M85.78,4.63h3.64V13.3h.17l8.46-8.67H103L93.4,14.08l10.2,11H98.49L89.62,15h-.2v10H85.78Z" fill="#464342"/><path d="M105.85,4.63h8a9.24,9.24,0,0,1,2.28.28,5.91,5.91,0,0,1,2,.89,4.9,4.9,0,0,1,1.43,1.6,4.88,4.88,0,0,1,.55,2.37,4.21,4.21,0,0,1-1,2.86,5.56,5.56,0,0,1-2.57,1.62v.06a5.12,5.12,0,0,1,1.77.53,4.69,4.69,0,0,1,1.4,1.07,4.75,4.75,0,0,1,.91,1.5,5.05,5.05,0,0,1,.33,1.84,5.37,5.37,0,0,1-.66,2.78,5.26,5.26,0,0,1-1.75,1.79,7.47,7.47,0,0,1-2.48,1,14.28,14.28,0,0,1-2.85.29h-7.36ZM109.49,13h3.32a4.43,4.43,0,0,0,2.73-.71,2.23,2.23,0,0,0,.91-1.86,2.23,2.23,0,0,0-.94-2,5.46,5.46,0,0,0-3-.65h-3Zm0,9h3.35a13.33,13.33,0,0,0,1.49-.09,4.26,4.26,0,0,0,1.45-.4,2.87,2.87,0,0,0,1.1-.91,2.66,2.66,0,0,0,.44-1.6,2.44,2.44,0,0,0-1.06-2.26,6.57,6.57,0,0,0-3.28-.63h-3.49Z" fill="#464342"/><path d="M123.75,14.94a11.84,11.84,0,0,1,.81-4.46,10,10,0,0,1,2.24-3.42,9.83,9.83,0,0,1,3.41-2.18,12,12,0,0,1,4.35-.77,12.1,12.1,0,0,1,4.38.71A9.6,9.6,0,0,1,142.38,7a10,10,0,0,1,2.25,3.41,11.72,11.72,0,0,1,.81,4.45,11.36,11.36,0,0,1-.81,4.36,10.11,10.11,0,0,1-2.25,3.38,10.33,10.33,0,0,1-3.44,2.21,12.32,12.32,0,0,1-4.38.82,12,12,0,0,1-4.35-.77,9.93,9.93,0,0,1-3.41-2.16,10.09,10.09,0,0,1-2.24-3.37A11.33,11.33,0,0,1,123.75,14.94Zm3.82-.23a8.92,8.92,0,0,0,.5,3,7.19,7.19,0,0,0,1.43,2.4,6.79,6.79,0,0,0,2.21,1.59,7.44,7.44,0,0,0,5.76,0,6.77,6.77,0,0,0,2.23-1.59,7.19,7.19,0,0,0,1.43-2.4,8.92,8.92,0,0,0,.5-3,8.15,8.15,0,0,0-.5-2.86,7.23,7.23,0,0,0-1.43-2.32A6.42,6.42,0,0,0,137.47,8a7.56,7.56,0,0,0-5.76,0,6.43,6.43,0,0,0-2.21,1.56,7.23,7.23,0,0,0-1.43,2.32A8.15,8.15,0,0,0,127.57,14.71Z" fill="#464342"/><path d="M148.1,14.94a11.84,11.84,0,0,1,.81-4.46,9.73,9.73,0,0,1,5.64-5.6,12,12,0,0,1,4.35-.77,12.15,12.15,0,0,1,4.39.71A9.69,9.69,0,0,1,166.73,7,10,10,0,0,1,169,10.38a11.72,11.72,0,0,1,.81,4.45,11.36,11.36,0,0,1-.81,4.36,10.11,10.11,0,0,1-2.25,3.38,10.43,10.43,0,0,1-3.44,2.21,12.38,12.38,0,0,1-4.39.82,12,12,0,0,1-4.35-.77,9.72,9.72,0,0,1-5.64-5.53A11.33,11.33,0,0,1,148.1,14.94Zm3.81-.23a8.68,8.68,0,0,0,.51,3,6.88,6.88,0,0,0,1.43,2.4,6.75,6.75,0,0,0,2.2,1.59,7.05,7.05,0,0,0,2.88.58,7.14,7.14,0,0,0,2.89-.58A6.83,6.83,0,0,0,164,20.14a7,7,0,0,0,1.43-2.4,8.68,8.68,0,0,0,.5-3,7.93,7.93,0,0,0-.5-2.86A7.06,7.06,0,0,0,164,9.53,6.47,6.47,0,0,0,161.82,8a7.13,7.13,0,0,0-2.89-.57,7.05,7.05,0,0,0-2.88.57,6.39,6.39,0,0,0-2.2,1.56,6.9,6.9,0,0,0-1.43,2.32A7.93,7.93,0,0,0,151.91,14.71Z" fill="#464342"/><path d="M173.54,4.63h3.64V13.3h.17l8.46-8.67h4.91l-9.56,9.45,10.2,11h-5.11l-8.87-10h-.2v10h-3.64Z" fill="#464342"/></svg>