<svg xmlns="http://www.w3.org/2000/svg" width="352" height="61" viewBox="0 0 352 61"><title>venuebook_slack_logo</title><path d="M156.22,4.3h3.1v7.5h.2l7.3-7.5H171l-8.3,8.2,8.8,9.5h-4.3l-7.7-8.7h-.2V22h-3.1ZM136.72,13a7.1,7.1,0,0,0,.4,2.6,7.19,7.19,0,0,0,1.2,2.1,6.69,6.69,0,0,0,1.9,1.4,6.5,6.5,0,0,0,5,0,4.5,4.5,0,0,0,1.9-1.4,7.19,7.19,0,0,0,1.2-2.1,7.46,7.46,0,0,0,.4-2.6,6.9,6.9,0,0,0-.4-2.5,6.66,6.66,0,0,0-1.2-2,6.69,6.69,0,0,0-1.9-1.4,6.5,6.5,0,0,0-5,0,5.22,5.22,0,0,0-1.9,1.4,6.66,6.66,0,0,0-1.2,2A10.05,10.05,0,0,0,136.72,13Zm-3.3.2a10,10,0,0,1,.7-3.9,10.23,10.23,0,0,1,1.9-3,8.12,8.12,0,0,1,2.9-1.9,11.44,11.44,0,0,1,7.6-.1,8,8,0,0,1,3,1.9,8.12,8.12,0,0,1,1.9,2.9,9.69,9.69,0,0,1,.7,3.9,9.52,9.52,0,0,1-.7,3.8,9.72,9.72,0,0,1-1.9,2.9,7.71,7.71,0,0,1-3,1.9,11.66,11.66,0,0,1-3.8.7,9.52,9.52,0,0,1-3.8-.7,8.6,8.6,0,0,1-2.9-1.9,8.12,8.12,0,0,1-1.9-2.9A9.21,9.21,0,0,1,133.42,13.2Zm-18.5-.2a7.1,7.1,0,0,0,.4,2.6,7.19,7.19,0,0,0,1.2,2.1,6.69,6.69,0,0,0,1.9,1.4,6.5,6.5,0,0,0,5,0,4.5,4.5,0,0,0,1.9-1.4,7.19,7.19,0,0,0,1.2-2.1,7.46,7.46,0,0,0,.4-2.6,6.9,6.9,0,0,0-.4-2.5,6.66,6.66,0,0,0-1.2-2,6.69,6.69,0,0,0-1.9-1.4,6.5,6.5,0,0,0-5,0,5.22,5.22,0,0,0-1.9,1.4,6.66,6.66,0,0,0-1.2,2A6.9,6.9,0,0,0,114.92,13Zm-3.3.2a10,10,0,0,1,.7-3.9,10.23,10.23,0,0,1,1.9-3,9.07,9.07,0,0,1,3-1.9,11.44,11.44,0,0,1,7.6-.1,8,8,0,0,1,3,1.9,8.12,8.12,0,0,1,1.9,2.9,9.69,9.69,0,0,1,.7,3.9,9.52,9.52,0,0,1-.7,3.8,9.72,9.72,0,0,1-1.9,2.9,7.71,7.71,0,0,1-3,1.9,10.66,10.66,0,0,1-7.6,0,10.23,10.23,0,0,1-3-1.9,8.12,8.12,0,0,1-1.9-2.9A7.71,7.71,0,0,1,111.62,13.2Zm-13.1,6.1h2.9a6.15,6.15,0,0,0,1.3-.1,5,5,0,0,0,1.3-.4,1.76,1.76,0,0,0,.9-.8,2.89,2.89,0,0,0,.4-1.4,2,2,0,0,0-.9-1.9,5.3,5.3,0,0,0-2.8-.6h-3v5.2Zm0-7.8h2.9a4.27,4.27,0,0,0,2.4-.6,1.94,1.94,0,0,0,.8-1.6,2,2,0,0,0-.8-1.7,4.91,4.91,0,0,0-2.7-.6h-2.6v4.5Zm-3.1-7.2h6.9a13.55,13.55,0,0,1,2,.2,4.47,4.47,0,0,1,1.7.8,4.07,4.07,0,0,1,1.2,1.4,4.23,4.23,0,0,1,.5,2,4.15,4.15,0,0,1-.8,2.5,5.55,5.55,0,0,1-2.2,1.4v.1a3.81,3.81,0,0,1,1.5.5,2.73,2.73,0,0,1,1.2.9,5.67,5.67,0,0,1,.8,1.3,4.15,4.15,0,0,1,.3,1.6,4.27,4.27,0,0,1-.6,2.4,5.72,5.72,0,0,1-1.5,1.6,4.85,4.85,0,0,1-2.1.8,10.14,10.14,0,0,1-2.5.2h-6.4V4.3Zm-16.3,0h11.7V7.2h-8.6v4.4h8.1v2.9h-8.1v4.8h9V22H79.12V4.3Zm-4.9,11.2a6.84,6.84,0,0,1-.6,2.9,7.12,7.12,0,0,1-1.5,2.2,6.36,6.36,0,0,1-2.2,1.4,8.68,8.68,0,0,1-2.8.5,8.21,8.21,0,0,1-2.8-.5A6.78,6.78,0,0,1,62,20.6a7.12,7.12,0,0,1-1.5-2.2,6.82,6.82,0,0,1-.5-2.9V4.3h3.2V15.4a7.84,7.84,0,0,0,.2,1.4,3.29,3.29,0,0,0,.7,1.3,4,4,0,0,0,1.2,1,4.71,4.71,0,0,0,3.8,0,4,4,0,0,0,1.2-1,5.39,5.39,0,0,0,.7-1.3,6.75,6.75,0,0,0,.2-1.4V4.3h3V15.5ZM39.12,4.3h4.2l8.6,13.2V4.3h3.2V22h-4L42.32,8.4V22h-3.2Zm-16.2,0h11.7V7.2H26v4.4h8.1v2.9H26v4.8h9V22H22.92Zm-19.8,0h3.6l4.8,13.4,5-13.4h3.4L12.82,22h-2.7Z" fill="#464342"/><path d="M198.27,8.49a5,5,0,0,0-2-1.54,5.78,5.78,0,0,0-2.44-.54A6.44,6.44,0,0,0,189,8.56a7.13,7.13,0,0,0-1.37,2.35,8.31,8.31,0,0,0-.49,2.89,7.93,7.93,0,0,0,.46,2.72,6.78,6.78,0,0,0,1.34,2.26A6.27,6.27,0,0,0,191,20.32a6.92,6.92,0,0,0,2.84.56,5.64,5.64,0,0,0,2.75-.64,5.92,5.92,0,0,0,2-1.8L200.71,20a8.8,8.8,0,0,1-.72.81,7,7,0,0,1-1.36,1.05,9.24,9.24,0,0,1-2,.92,8.54,8.54,0,0,1-2.76.4,8.9,8.9,0,0,1-3.88-.82,9.37,9.37,0,0,1-4.82-5.17,9.62,9.62,0,0,1-.64-3.4,10.51,10.51,0,0,1,.7-3.89,9.2,9.2,0,0,1,1.93-3.08,8.75,8.75,0,0,1,3-2A10,10,0,0,1,194,4.1a9.44,9.44,0,0,1,3.53.69,6.56,6.56,0,0,1,2.84,2.13Z" fill="#464342"/><path d="M212.54,23.19a9.71,9.71,0,0,1-3.82-.73,9,9,0,0,1-3-2,9.39,9.39,0,0,1-1.95-3,10,10,0,0,1-.71-3.77,10,10,0,0,1,.71-3.78,9.39,9.39,0,0,1,1.95-3,9,9,0,0,1,3-2,10.36,10.36,0,0,1,7.64,0,9,9,0,0,1,3,2,9.39,9.39,0,0,1,2,3,10,10,0,0,1,.71,3.78,10,10,0,0,1-.71,3.77,9.39,9.39,0,0,1-2,3,9,9,0,0,1-3,2A9.71,9.71,0,0,1,212.54,23.19Zm0-2.31a6.65,6.65,0,0,0,5-2.13,6.66,6.66,0,0,0,1.38-2.3,8.27,8.27,0,0,0,0-5.61A6.59,6.59,0,0,0,215.36,7a6.82,6.82,0,0,0-7.8,1.55,6.66,6.66,0,0,0-1.38,2.3,8.27,8.27,0,0,0,0,5.61,6.63,6.63,0,0,0,6.36,4.43Z" fill="#464342"/><path d="M225.88,4.56h3.67l5.78,13.76h.1l5.72-13.76h3.67V22.73h-2.46V7.79h-.05l-6.14,14.94h-1.64L228.4,7.79h-.05V22.73h-2.47Z" fill="#464342"/><path d="M249.65,4.56h3.67l5.77,13.76h.1l5.73-13.76h3.66V22.73h-2.46V7.79h-.05l-6.13,14.94h-1.65L252.16,7.79h0V22.73h-2.46Z" fill="#464342"/><path d="M275.72,4.56V15.7a7.4,7.4,0,0,0,.23,1.76,5.12,5.12,0,0,0,.77,1.68,4.16,4.16,0,0,0,1.41,1.25,5,5,0,0,0,4.31,0,4.16,4.16,0,0,0,1.41-1.25,5.12,5.12,0,0,0,.77-1.68,6.92,6.92,0,0,0,.23-1.76V4.56h2.47V16.08a7.44,7.44,0,0,1-.54,2.89,6.92,6.92,0,0,1-1.49,2.24,6.47,6.47,0,0,1-2.23,1.47,7.8,7.8,0,0,1-5.55,0,6.47,6.47,0,0,1-2.23-1.47A6.92,6.92,0,0,1,273.79,19a7.44,7.44,0,0,1-.54-2.89V4.56Z" fill="#464342"/><path d="M292.17,4.56h3.23l10,14.94h0V4.56h2.46V22.73h-3.13L294.68,7.79h-.05V22.73h-2.46Z" fill="#464342"/><path d="M313.11,4.56h2.46V22.73h-2.46Z" fill="#464342"/><path d="M324.55,6.87H318.7V4.56h14.17V6.87H327V22.73h-2.47Z" fill="#464342"/><path d="M340.28,15,333.4,4.56h3.16l4.95,8,5.11-8h3L342.75,15v7.75h-2.47Z" fill="#464342"/><g opacity="0.7"><path d="M199.43,34.25a1.45,1.45,0,0,0-2.75.89l3.74,11.49a1.45,1.45,0,0,0,2.75-.89Z" fill="#e9a823"/><path d="M193.64,36.1a1.44,1.44,0,0,0-2.7.92l3.69,11.49a1.45,1.45,0,0,0,2.75-.89Z" fill="#3fb991"/><path d="M204.13,43.77a1.45,1.45,0,0,0-.89-2.75l-11.47,3.73a1.45,1.45,0,0,0,.84,2.75Z" fill="#e11765"/><path d="M194.15,47l2.74-.89L196,43.37l-2.75.9Z" fill="#472a49"/><path d="M199.94,45.13l2.74-.9-.88-2.74-2.76.89Z" fill="#cd2027"/><path d="M202.25,38a1.46,1.46,0,0,0,.63-1.95,1.44,1.44,0,0,0-1.52-.77L189.87,39a1.45,1.45,0,0,0-.9,1.76,1.43,1.43,0,0,0,1.78,1h0Z" fill="#71cbdc"/><path d="M192.27,41.23l2.74-.9-.89-2.75-2.75.9Z" fill="#1d947e"/><path d="M198.05,39.35l2.75-.9-.9-2.75-2.74.9Z" fill="#66873a"/><path d="M215.79,37.27c.5.22.55.39.15,1.15s-.51.83-1,.62a5.7,5.7,0,0,0-2-.44c-.84,0-1.41.3-1.41.76,0,1.53,4.87.7,4.87,4,0,1.67-1.41,2.73-3.51,2.73a8.1,8.1,0,0,1-3.42-.84c-.48-.23-.5-.37-.1-1.15s.47-.76,1-.54a7.22,7.22,0,0,0,2.5.61c.78,0,1.3-.31,1.3-.77,0-1.48-5-.78-5-3.93,0-1.67,1.4-2.79,3.49-2.79A8.3,8.3,0,0,1,215.79,37.27Z" fill="#3c444c"/><path d="M219.72,33.41V45.53a.44.44,0,0,1-.48.38H218a.42.42,0,0,1-.47-.38V33.41c0-.6.16-.66,1.11-.66S219.72,32.83,219.72,33.41Z" fill="#3c444c"/><path d="M228.79,40.27v5.18a.46.46,0,0,1-.44.47h-1.29a.44.44,0,0,1-.48-.42v-.64A3.55,3.55,0,0,1,223.93,46c-1.9,0-3.17-1.1-3.17-2.74s1.43-2.92,3.6-2.93a5.85,5.85,0,0,1,2.18.4v-.6c0-1-.74-1.54-2-1.54a4.27,4.27,0,0,0-1.93.59c-.46.26-.56.23-1.06-.5s-.46-.83,0-1.16a6.15,6.15,0,0,1,3.2-.94C227.22,36.59,228.79,37.93,228.79,40.27Zm-5.85,3c0,.62.52,1,1.32,1a2.77,2.77,0,0,0,2.34-1.25v-.83a4.58,4.58,0,0,0-1.67-.31c-1.23,0-2,.55-2,1.31Z" fill="#3c444c"/><path d="M237.43,37.29c.46.27.48.42,0,1.2s-.56.79-1.07.53a3.44,3.44,0,0,0-1.54-.42,2.51,2.51,0,0,0-2.67,2.34v.31A2.56,2.56,0,0,0,234.5,44h.32a3.94,3.94,0,0,0,1.67-.46c.47-.27.57-.25,1,.46s.44.83,0,1.1a5.38,5.38,0,0,1-2.83.84,4.57,4.57,0,0,1-4.93-4.73c0-2.83,2-4.7,4.95-4.7A5.7,5.7,0,0,1,237.43,37.29Z" fill="#3c444c"/><path d="M247.07,44.77c.38.47.23.63-.7,1s-1.07.32-1.4-.11l-2.64-3.53-1.19,1.14v2.29a.43.43,0,0,1-.47.38H239.4a.43.43,0,0,1-.47-.38V33.41c0-.6.17-.66,1.11-.66s1.1.08,1.1.66v6.86l3.63-3.47c.39-.39.62-.35,1.33.11s.83.66.46,1l-2.7,2.63Z" fill="#3c444c"/></g><path d="M106,36.3h2.94a6.26,6.26,0,0,1,1.31.13,3.27,3.27,0,0,1,1.1.45,2.31,2.31,0,0,1,.77.84,2.67,2.67,0,0,1,.29,1.29,2.64,2.64,0,0,1-.31,1.35,2.55,2.55,0,0,1-.79.84,3.2,3.2,0,0,1-1.06.43,5.3,5.3,0,0,1-1.09.13h-2v4.45H106Zm1.17,4.36h2a2.45,2.45,0,0,0,1.44-.39,1.67,1.67,0,0,0,0-2.48,2.38,2.38,0,0,0-1.44-.4h-2Z" fill="#666"/><path d="M114,42.93a3.53,3.53,0,0,1,.27-1.4,3.26,3.26,0,0,1,1.83-1.79,4,4,0,0,1,2.8,0,3.2,3.2,0,0,1,1.11.71,3.27,3.27,0,0,1,.73,1.08,3.9,3.9,0,0,1,0,2.8,3.42,3.42,0,0,1-.73,1.09,3.18,3.18,0,0,1-1.11.7,3.75,3.75,0,0,1-1.4.26,3.79,3.79,0,0,1-1.4-.26,3.23,3.23,0,0,1-1.1-.7,3.42,3.42,0,0,1-.73-1.09A3.5,3.5,0,0,1,114,42.93Zm1.18,0a2.69,2.69,0,0,0,.16,1,2.22,2.22,0,0,0,1.21,1.29,2.5,2.5,0,0,0,1.91,0,2.22,2.22,0,0,0,1.21-1.29,2.93,2.93,0,0,0,.16-1,3,3,0,0,0-.16-1,2.42,2.42,0,0,0-.47-.77,2.13,2.13,0,0,0-.74-.51,2.5,2.5,0,0,0-1.91,0,2.13,2.13,0,0,0-.74.51,2.42,2.42,0,0,0-.47.77A2.76,2.76,0,0,0,115.15,42.93Z" fill="#666"/><path d="M130,46.21H128.9l-1.86-5h0l-1.65,5h-1.12l-2.13-6.55h1.2l1.5,5h0l1.69-5h1.15l1.72,5h0l1.48-5h1.18Z" fill="#666"/><path d="M139.45,45a3.38,3.38,0,0,1-1.28,1.06,4.12,4.12,0,0,1-1.63.3,3.24,3.24,0,0,1-1.38-.28,3.14,3.14,0,0,1-1-.73,3.23,3.23,0,0,1-.65-1.09,3.76,3.76,0,0,1-.24-1.35,3.7,3.7,0,0,1,.26-1.39,3.16,3.16,0,0,1,1.76-1.8,3.47,3.47,0,0,1,1.34-.25,3.4,3.4,0,0,1,1.26.23,2.63,2.63,0,0,1,1,.67,3,3,0,0,1,.64,1.08,4.33,4.33,0,0,1,.22,1.45v.35H134.4a2.41,2.41,0,0,0,.2.8,2.47,2.47,0,0,0,.46.68,1.93,1.93,0,0,0,.66.45,2,2,0,0,0,.82.17,2.74,2.74,0,0,0,1.21-.25,2.8,2.8,0,0,0,.88-.75Zm-.93-2.68A1.87,1.87,0,0,0,138,41a2,2,0,0,0-1.43-.5,2,2,0,0,0-2.14,1.84Z" fill="#666"/><path d="M141.67,41.21q0-.45,0-.84c0-.26,0-.5,0-.71h1c0,.17,0,.35,0,.53s0,.36,0,.54h0a2.22,2.22,0,0,1,.8-.86,3,3,0,0,1,.63-.28,2.64,2.64,0,0,1,.76-.1h.22a.9.9,0,0,1,.22.06l-.07,1.1a2.2,2.2,0,0,0-.58-.08,1.68,1.68,0,0,0-1.47.65,3.12,3.12,0,0,0-.45,1.79v3.19h-1.09Z" fill="#666"/><path d="M152.47,45a3.38,3.38,0,0,1-1.28,1.06,4.12,4.12,0,0,1-1.63.3,3.24,3.24,0,0,1-1.38-.28,3.14,3.14,0,0,1-1.05-.73,3.23,3.23,0,0,1-.65-1.09,3.76,3.76,0,0,1-.24-1.35,3.7,3.7,0,0,1,.26-1.39,3.16,3.16,0,0,1,1.76-1.8,3.47,3.47,0,0,1,1.34-.25,3.4,3.4,0,0,1,1.26.23,2.63,2.63,0,0,1,1,.67,3,3,0,0,1,.64,1.08,4.33,4.33,0,0,1,.22,1.45v.35h-5.29a2.41,2.41,0,0,0,.2.8,2.47,2.47,0,0,0,.46.68,1.93,1.93,0,0,0,.66.45,2,2,0,0,0,.82.17,2.74,2.74,0,0,0,1.21-.25,2.8,2.8,0,0,0,.88-.75Zm-.93-2.68A1.87,1.87,0,0,0,151,41a2,2,0,0,0-1.43-.5,2,2,0,0,0-2.14,1.84Z" fill="#666"/><path d="M160.13,45.05h0a2.51,2.51,0,0,1-1,.94,3,3,0,0,1-1.55.39,3.25,3.25,0,0,1-1.28-.26,3.38,3.38,0,0,1-1.05-.72,3.54,3.54,0,0,1-.69-1.1,3.88,3.88,0,0,1,0-2.74,3.34,3.34,0,0,1,.7-1.09,3.1,3.1,0,0,1,1.08-.72,3.61,3.61,0,0,1,1.41-.26,3,3,0,0,1,1.31.29,3.08,3.08,0,0,1,1,.83h0v-5h1.09V46.21h-1.09Zm0-2.12a2.76,2.76,0,0,0-.16-1,2.25,2.25,0,0,0-.47-.77,2.09,2.09,0,0,0-.73-.51,2.32,2.32,0,0,0-1-.19,2.25,2.25,0,0,0-1,.19,2.13,2.13,0,0,0-.74.51,2.23,2.23,0,0,0-.46.77,2.77,2.77,0,0,0-.17,1,2.69,2.69,0,0,0,.17,1,2.14,2.14,0,0,0,.46.77,2.3,2.3,0,0,0,.74.52,2.25,2.25,0,0,0,1,.19,2.32,2.32,0,0,0,1-.19,2.26,2.26,0,0,0,.73-.52,2.16,2.16,0,0,0,.47-.77A2.69,2.69,0,0,0,160.13,42.93Z" fill="#666"/><path d="M167.64,35.62h1.09v5h0a3.08,3.08,0,0,1,1-.83,3,3,0,0,1,1.31-.29,3.53,3.53,0,0,1,1.4.26,3.05,3.05,0,0,1,1.09.72,3.34,3.34,0,0,1,.7,1.09,3.88,3.88,0,0,1,0,2.74,3.54,3.54,0,0,1-.69,1.1,3.5,3.5,0,0,1-1.05.72,3.25,3.25,0,0,1-1.28.26,3,3,0,0,1-1.55-.39,2.51,2.51,0,0,1-1-.94h0v1.16h-1.09Zm1.09,7.31a2.69,2.69,0,0,0,.16,1,2.16,2.16,0,0,0,.47.77,2.26,2.26,0,0,0,.73.52,2.32,2.32,0,0,0,1,.19,2.25,2.25,0,0,0,1-.19,2.3,2.3,0,0,0,.74-.52,2.14,2.14,0,0,0,.46-.77,2.69,2.69,0,0,0,.17-1,2.77,2.77,0,0,0-.17-1,2.23,2.23,0,0,0-.46-.77,2.13,2.13,0,0,0-.74-.51,2.25,2.25,0,0,0-1-.19,2.32,2.32,0,0,0-1,.19,2.09,2.09,0,0,0-.73.51,2.25,2.25,0,0,0-.47.77A2.76,2.76,0,0,0,168.73,42.93Z" fill="#666"/><path d="M178.93,47.71a7.82,7.82,0,0,1-.34.76,2.61,2.61,0,0,1-.42.59,1.71,1.71,0,0,1-.59.38,2.49,2.49,0,0,1-.83.13l-.5,0a1.33,1.33,0,0,1-.48-.14l.14-.95a1.06,1.06,0,0,0,.35.09l.42,0a1,1,0,0,0,.78-.29,2.56,2.56,0,0,0,.44-.79l.45-1.23-2.72-6.59h1.27l2,5.13h0l1.95-5.13h1.19Z" fill="#666"/></svg>