<svg xmlns="http://www.w3.org/2000/svg" width="268" height="54" viewBox="0 0 268 54"><title>venuebook_slack_logo</title><path d="M212.43,34.25a1.45,1.45,0,0,0-2.75.89l3.74,11.49a1.45,1.45,0,0,0,2.75-.89Z" fill="#e9a823"/><path d="M206.64,36.1a1.44,1.44,0,0,0-2.7.92l3.69,11.49a1.45,1.45,0,0,0,2.75-.89Z" fill="#3fb991"/><path d="M217.13,43.77a1.45,1.45,0,0,0-.89-2.75l-11.47,3.73a1.45,1.45,0,0,0,.84,2.75Z" fill="#e11765"/><path d="M207.14,47l2.75-.89L209,43.37l-2.75.9Z" fill="#472a49"/><path d="M212.93,45.13l2.75-.9-.88-2.74-2.76.89Z" fill="#cd2027"/><path d="M215.25,38a1.46,1.46,0,0,0,.63-1.95,1.44,1.44,0,0,0-1.52-.77L202.87,39a1.45,1.45,0,0,0-.9,1.76,1.43,1.43,0,0,0,1.78,1h0Z" fill="#71cbdc"/><path d="M205.26,41.23l2.75-.9-.89-2.75-2.75.9Z" fill="#1d947e"/><path d="M211.05,39.35l2.75-.9-.9-2.75-2.74.9Z" fill="#66873a"/><path d="M228.79,37.27c.5.22.55.39.14,1.15s-.5.83-1,.62a5.7,5.7,0,0,0-2-.44c-.84,0-1.41.3-1.41.76,0,1.53,4.87.7,4.87,4,0,1.67-1.41,2.73-3.51,2.73a8.1,8.1,0,0,1-3.42-.84c-.48-.23-.5-.37-.1-1.15s.47-.76,1-.54a7.22,7.22,0,0,0,2.5.61c.78,0,1.3-.31,1.3-.77,0-1.48-5-.78-5-3.93,0-1.67,1.4-2.79,3.49-2.79A8.3,8.3,0,0,1,228.79,37.27Z" fill="#3c444c"/><path d="M232.72,33.41V45.53a.44.44,0,0,1-.48.38H231a.42.42,0,0,1-.47-.38V33.41c0-.6.16-.66,1.11-.66S232.72,32.83,232.72,33.41Z" fill="#3c444c"/><path d="M241.78,40.27v5.18a.45.45,0,0,1-.43.47h-1.29a.44.44,0,0,1-.48-.42v-.64A3.55,3.55,0,0,1,236.93,46c-1.9,0-3.17-1.1-3.17-2.74s1.43-2.92,3.6-2.93a5.85,5.85,0,0,1,2.18.4v-.6c0-1-.74-1.54-2-1.54a4.27,4.27,0,0,0-1.93.59c-.46.26-.56.23-1.06-.5s-.46-.83,0-1.16a6.15,6.15,0,0,1,3.2-.94C240.22,36.59,241.78,37.93,241.78,40.27Zm-5.84,3c0,.62.52,1,1.32,1a2.77,2.77,0,0,0,2.34-1.25v-.83a4.59,4.59,0,0,0-1.68-.31c-1.22,0-2,.55-2,1.31Z" fill="#3c444c"/><path d="M250.43,37.29c.46.27.48.42,0,1.2s-.56.79-1.07.53a3.44,3.44,0,0,0-1.54-.42,2.51,2.51,0,0,0-2.67,2.34v.31A2.56,2.56,0,0,0,247.5,44h.32a3.94,3.94,0,0,0,1.67-.46c.47-.27.57-.25,1,.46s.44.83,0,1.1a5.38,5.38,0,0,1-2.83.84,4.57,4.57,0,0,1-4.93-4.73c0-2.83,2-4.7,4.95-4.7A5.7,5.7,0,0,1,250.43,37.29Z" fill="#3c444c"/><path d="M260.07,44.77c.38.47.23.63-.7,1s-1.07.32-1.4-.11l-2.64-3.53-1.19,1.14v2.29a.43.43,0,0,1-.47.38H252.4a.43.43,0,0,1-.47-.38V33.41c0-.6.17-.66,1.11-.66s1.1.08,1.1.66v6.86l3.63-3.47c.39-.39.62-.35,1.33.11s.83.66.46,1l-2.7,2.63Z" fill="#3c444c"/><path d="M9,36h2.6a5,5,0,0,1,1.27.15,2.87,2.87,0,0,1,1,.46,2.06,2.06,0,0,1,.63.77,2.42,2.42,0,0,1,.22,1.08,2.47,2.47,0,0,1-.22,1.09,2.24,2.24,0,0,1-.64.76,2.84,2.84,0,0,1-1,.47,5.05,5.05,0,0,1-1.28.15H9.89v4.28H9Zm.93,4.14h1.59a2.73,2.73,0,0,0,1.67-.43,1.45,1.45,0,0,0,.58-1.25,1.4,1.4,0,0,0-.59-1.25,2.93,2.93,0,0,0-1.66-.4H9.89Z" fill="#666"/><path d="M25.86,40.61a4.88,4.88,0,0,1-.37,1.93,4.72,4.72,0,0,1-1,1.53,4.59,4.59,0,0,1-1.53,1,5,5,0,0,1-1.9.36,5,5,0,0,1-1.91-.36,4.65,4.65,0,0,1-1.52-1,4.56,4.56,0,0,1-1-1.53,5.24,5.24,0,0,1,0-3.87,4.56,4.56,0,0,1,1-1.53,4.81,4.81,0,0,1,1.52-1,5,5,0,0,1,1.91-.36,5,5,0,0,1,1.9.36,4.51,4.51,0,0,1,2.53,2.54A4.9,4.9,0,0,1,25.86,40.61Zm-1,0a4.64,4.64,0,0,0-.26-1.53,4,4,0,0,0-.76-1.28,3.53,3.53,0,0,0-1.2-.87,4,4,0,0,0-3.18,0,3.57,3.57,0,0,0-1.21.87,3.82,3.82,0,0,0-.75,1.28,4.64,4.64,0,0,0-.26,1.53,4.55,4.55,0,0,0,.26,1.53,3.59,3.59,0,0,0,2,2.15,4.11,4.11,0,0,0,3.18,0,3.67,3.67,0,0,0,1.2-.87,3.92,3.92,0,0,0,.76-1.28A4.55,4.55,0,0,0,24.87,40.61Z" fill="#666"/><path d="M30.29,43.92h0L32.62,36h1.11L36,43.92h0L38.31,36h1l-2.72,9.21H35.49L33.18,37.3h0l-2.31,7.91h-1.1L27,36h1Z" fill="#666"/><path d="M41.9,44.38h4.92v.83H41V36h5.71v.84H41.9V40h4.46v.83H41.9Z" fill="#666"/><path d="M49.85,45.21h-.93V36h2.7a6.25,6.25,0,0,1,1.26.13,2.83,2.83,0,0,1,1,.43,1.92,1.92,0,0,1,.65.76,2.46,2.46,0,0,1,.24,1.14,2.25,2.25,0,0,1-.18.92,2.49,2.49,0,0,1-.5.73,2.36,2.36,0,0,1-.74.48,3.41,3.41,0,0,1-.94.24l2.7,4.38H54l-2.55-4.3H49.85Zm0-5.11h1.63a3.15,3.15,0,0,0,1.74-.41,1.37,1.37,0,0,0,.61-1.23,1.54,1.54,0,0,0-.17-.77,1.4,1.4,0,0,0-.47-.5,2.13,2.13,0,0,0-.72-.29,4.72,4.72,0,0,0-.95-.09H49.85Z" fill="#666"/><path d="M57.9,44.38h4.93v.83H57V36h5.71v.84H57.9V40h4.46v.83H57.9Z" fill="#666"/><path d="M64.92,36H68a5.49,5.49,0,0,1,1.72.29,5,5,0,0,1,1.56.86,4.73,4.73,0,0,1,1.12,5.47,4.44,4.44,0,0,1-1.12,1.44,5,5,0,0,1-1.56.86,5.49,5.49,0,0,1-1.72.29H64.92Zm.94,8.38h1.86a4.6,4.6,0,0,0,1.81-.33,3.77,3.77,0,0,0,1.28-.85,3.45,3.45,0,0,0,.76-1.2,3.92,3.92,0,0,0,.25-1.39,3.88,3.88,0,0,0-.25-1.39A3.49,3.49,0,0,0,70.81,38a3.92,3.92,0,0,0-1.28-.85,4.61,4.61,0,0,0-1.81-.32H65.86Z" fill="#666"/><path d="M78.53,36h2.74a4.85,4.85,0,0,1,1.06.12,2.73,2.73,0,0,1,1,.37,2.16,2.16,0,0,1,.69.72,2.25,2.25,0,0,1,.27,1.15,1.93,1.93,0,0,1-.45,1.27,2.09,2.09,0,0,1-1.18.7v0a2.4,2.4,0,0,1,1.48.7,2.16,2.16,0,0,1,.59,1.6,2.31,2.31,0,0,1-.24,1.05,2.36,2.36,0,0,1-.68.8,3.2,3.2,0,0,1-1.08.52,5.2,5.2,0,0,1-1.42.18H78.53Zm.94,4h1.88A3.08,3.08,0,0,0,82,40a2.13,2.13,0,0,0,.64-.27,1.48,1.48,0,0,0,.46-.5,1.62,1.62,0,0,0,.17-.77,1.6,1.6,0,0,0-.17-.75,1.53,1.53,0,0,0-.48-.5,1.9,1.9,0,0,0-.7-.27,3.91,3.91,0,0,0-.86-.09H79.47Zm0,4.37h1.74a5.07,5.07,0,0,0,1-.09A2.4,2.4,0,0,0,83,44a1.67,1.67,0,0,0,.56-.56,1.54,1.54,0,0,0,.2-.82,1.57,1.57,0,0,0-.61-1.36,2.94,2.94,0,0,0-1.75-.45H79.47Z" fill="#666"/><path d="M90.22,45.21h-.94v-4L85.84,36H87l2.77,4.46L92.57,36h1.09l-3.44,5.24Z" fill="#666"/><path d="M174.79,36.33h1.53V40h.1L180,36.33h2.08L178,40.39l4.35,4.7h-2.13l-3.81-4.3h-.1v4.3h-1.53Zm-9.64,4.31a3.45,3.45,0,0,0,.19,1.28,3.54,3.54,0,0,0,.6,1,3,3,0,0,0,.94.69,3.17,3.17,0,0,0,1.23.25,3.22,3.22,0,0,0,1.24-.25,2.12,2.12,0,0,0,.94-.69,3.52,3.52,0,0,0,.59-1,3.62,3.62,0,0,0,.2-1.28,3.4,3.4,0,0,0-.2-1.24,2.92,2.92,0,0,0-1.53-1.68,3.43,3.43,0,0,0-1.24-.25,3.37,3.37,0,0,0-1.23.25,2.47,2.47,0,0,0-.94.69,3.28,3.28,0,0,0-.6,1A5,5,0,0,0,165.15,40.64Zm-1.64.1a4.88,4.88,0,0,1,.35-1.93,5,5,0,0,1,.94-1.49,4.09,4.09,0,0,1,1.43-.94,5.77,5.77,0,0,1,1.88-.34,5.71,5.71,0,0,1,1.88.29,4.08,4.08,0,0,1,1.49.94,4.13,4.13,0,0,1,.94,1.44,4.85,4.85,0,0,1-.94,5.24,3.8,3.8,0,0,1-1.49.94,5.66,5.66,0,0,1-1.88.35,4.7,4.7,0,0,1-1.88-.35A4.19,4.19,0,0,1,164.8,44a4,4,0,0,1-.94-1.43A4.54,4.54,0,0,1,163.51,40.74Zm-9.15-.1a3.44,3.44,0,0,0,.2,1.28,3.76,3.76,0,0,0,.59,1,2.82,2.82,0,0,0,2.18.94,3.26,3.26,0,0,0,1.24-.25,2.18,2.18,0,0,0,.94-.69,3.76,3.76,0,0,0,.59-1,3.62,3.62,0,0,0,.2-1.28,3.4,3.4,0,0,0-.2-1.24,3.47,3.47,0,0,0-.59-1,3.41,3.41,0,0,0-.94-.69,3.47,3.47,0,0,0-1.24-.25,3.43,3.43,0,0,0-1.24.25,2.63,2.63,0,0,0-.94.69,3.47,3.47,0,0,0-.59,1A3.4,3.4,0,0,0,154.36,40.64Zm-1.63.1A4.89,4.89,0,0,1,154,37.32a4.58,4.58,0,0,1,1.48-.94,5.72,5.72,0,0,1,1.88-.34,5.8,5.8,0,0,1,1.88.29,4,4,0,0,1,1.48.94,4,4,0,0,1,.94,1.44,5.36,5.36,0,0,1,0,3.81,4.56,4.56,0,0,1-.94,1.43,3.76,3.76,0,0,1-1.48.94,5.22,5.22,0,0,1-3.76,0A5,5,0,0,1,154,44a3.83,3.83,0,0,1-.94-1.43A3.79,3.79,0,0,1,152.73,40.74Zm-6.48,3h1.43a3.08,3.08,0,0,0,.65,0,3,3,0,0,0,.64-.19.88.88,0,0,0,.45-.4,1.56,1.56,0,0,0,.19-.69,1,1,0,0,0-.44-.94,2.61,2.61,0,0,0-1.39-.3H146.3v2.57Zm0-3.86h1.43a2.1,2.1,0,0,0,1.19-.29,1,1,0,0,0,0-1.63,2.4,2.4,0,0,0-1.33-.3h-1.29v2.22Zm-1.53-3.56h3.41a6.64,6.64,0,0,1,1,.1,2.26,2.26,0,0,1,.84.4,2,2,0,0,1,.59.69,2.11,2.11,0,0,1-.15,2.23,2.79,2.79,0,0,1-1.08.69v.05a1.91,1.91,0,0,1,.74.25,1.25,1.25,0,0,1,.59.44,3,3,0,0,1,.4.64,2.36,2.36,0,0,1-.15,2,2.8,2.8,0,0,1-.74.79,2.43,2.43,0,0,1-1,.4,5,5,0,0,1-1.24.1h-3.16V36.33Zm-8.07,0h5.79v1.44h-4.25v2.17h4v1.44h-4v2.37h4.45v1.34h-6V36.33Zm-2.42,5.54a3.37,3.37,0,0,1-.3,1.44,3.44,3.44,0,0,1-.74,1.09,3.26,3.26,0,0,1-1.09.69,4.22,4.22,0,0,1-1.38.25,4,4,0,0,1-1.39-.25,3.44,3.44,0,0,1-1.13-.69,3.63,3.63,0,0,1-.75-1.09,3.52,3.52,0,0,1-.24-1.44V36.33h1.58v5.49a3.92,3.92,0,0,0,.1.7,1.8,1.8,0,0,0,.34.64,1.84,1.84,0,0,0,.6.49,1.73,1.73,0,0,0,.94.2,1.77,1.77,0,0,0,.94-.2,1.91,1.91,0,0,0,.59-.49,2.82,2.82,0,0,0,.35-.64,3.38,3.38,0,0,0,.1-.7V36.33h1.48v5.54Zm-17.36-5.54H119l4.25,6.53V36.33h1.58v8.76h-2l-4.35-6.73v6.73h-1.58Zm-8,0h5.79v1.44h-4.25v2.17h4v1.44h-4v2.37h4.45v1.34h-6Zm-9.79,0h1.78L103.22,43l2.47-6.63h1.68l-3.51,8.76h-1.34Z" fill="#464342"/><path d="M188,39.64h2.59V37.05a1,1,0,0,1,1-1h.14a1,1,0,0,1,1,1v2.59h2.59a1,1,0,0,1,1,1v.14a1,1,0,0,1-1,1h-2.59v2.59a1,1,0,0,1-1,1h-.14a1,1,0,0,1-1-1V41.78H188a1,1,0,0,1-1-1v-.14A1,1,0,0,1,188,39.64Z" fill="#464342"/><path d="M56.45,11A3.32,3.32,0,0,0,54.9,9.79a5.55,5.55,0,0,0-2-.39,5.05,5.05,0,0,0-1.23.15,3.54,3.54,0,0,0-1.07.46,2.49,2.49,0,0,0-.76.82,2.42,2.42,0,0,0-.29,1.2,1.86,1.86,0,0,0,.72,1.59,7,7,0,0,0,1.79,1q1.06.4,2.34.78a9.52,9.52,0,0,1,2.34,1,5.81,5.81,0,0,1,1.79,1.77,5.22,5.22,0,0,1,.72,2.91,6.5,6.5,0,0,1-.6,2.88A6,6,0,0,1,57,26a7.09,7.09,0,0,1-2.39,1.21,9.94,9.94,0,0,1-2.86.41A10.52,10.52,0,0,1,48.08,27a7,7,0,0,1-3-2.13l2.75-2.66a4.54,4.54,0,0,0,1.74,1.57,4.9,4.9,0,0,0,2.3.57,4.64,4.64,0,0,0,1.27-.18,3.93,3.93,0,0,0,1.16-.52,2.69,2.69,0,0,0,.83-.88,2.35,2.35,0,0,0,.32-1.23,2.14,2.14,0,0,0-.72-1.73,6.51,6.51,0,0,0-1.79-1c-.71-.28-1.49-.55-2.34-.8a9.87,9.87,0,0,1-2.34-1,5.79,5.79,0,0,1-1.79-1.73,5.2,5.2,0,0,1-.72-2.91,5.42,5.42,0,0,1,.65-2.74,5.92,5.92,0,0,1,1.7-1.92,7.45,7.45,0,0,1,2.41-1.14,10.3,10.3,0,0,1,5.91.11,7.34,7.34,0,0,1,2.73,1.62Z" fill="#464342"/><path d="M63.29,6.63h3.64V23.79h8.69v3.29H63.29Z" fill="#464342"/><path d="M85.18,6.63h3.15l8.81,20.45H93l-1.9-4.68H82.21l-1.85,4.68H76.29ZM89.8,19.28,86.66,11l-3.21,8.32Z" fill="#464342"/><path d="M113.74,11.43a6,6,0,0,0-2.18-1.62,5.87,5.87,0,0,0-2.12-.41,7,7,0,0,0-2.87.57,6.43,6.43,0,0,0-2.21,1.56,7.06,7.06,0,0,0-1.43,2.32,7.93,7.93,0,0,0-.51,2.86,8.68,8.68,0,0,0,.51,3,7,7,0,0,0,1.43,2.4,6.79,6.79,0,0,0,2.21,1.59,7,7,0,0,0,2.87.58,5.21,5.21,0,0,0,2.41-.6A6.44,6.44,0,0,0,114,21.82L117,24a8.23,8.23,0,0,1-3.38,2.77,10.53,10.53,0,0,1-4.25.87,11.92,11.92,0,0,1-4.34-.77,9.93,9.93,0,0,1-3.41-2.16,10.09,10.09,0,0,1-2.24-3.37,11.33,11.33,0,0,1-.81-4.36,11.84,11.84,0,0,1,.81-4.46,10,10,0,0,1,2.24-3.42,9.83,9.83,0,0,1,3.41-2.18,11.92,11.92,0,0,1,4.34-.77,10,10,0,0,1,3.86.74,8.93,8.93,0,0,1,3.3,2.5Z" fill="#464342"/><path d="M119.78,6.63h3.64V15.3h.17l8.46-8.67H137l-9.56,9.45,10.2,11h-5.11l-8.87-10h-.2v10h-3.64Z" fill="#464342"/><path d="M139.85,6.63h8a9.24,9.24,0,0,1,2.28.28,5.91,5.91,0,0,1,2,.89,4.9,4.9,0,0,1,1.43,1.6,4.88,4.88,0,0,1,.55,2.37,4.21,4.21,0,0,1-1,2.86,5.56,5.56,0,0,1-2.57,1.62v.06a5.12,5.12,0,0,1,1.77.53,4.69,4.69,0,0,1,1.4,1.07,4.75,4.75,0,0,1,.91,1.5,5.05,5.05,0,0,1,.33,1.84,5.37,5.37,0,0,1-.66,2.78,5.26,5.26,0,0,1-1.75,1.79,7.47,7.47,0,0,1-2.48,1,14.28,14.28,0,0,1-2.85.29h-7.36ZM143.49,15h3.32a4.43,4.43,0,0,0,2.73-.71,2.23,2.23,0,0,0,.91-1.86,2.23,2.23,0,0,0-.94-2,5.46,5.46,0,0,0-3-.65h-3Zm0,9h3.35a13.33,13.33,0,0,0,1.49-.09,4.26,4.26,0,0,0,1.45-.4,2.87,2.87,0,0,0,1.1-.91,2.66,2.66,0,0,0,.44-1.6,2.44,2.44,0,0,0-1.06-2.26,6.57,6.57,0,0,0-3.28-.63h-3.49Z" fill="#464342"/><path d="M157.75,16.94a11.84,11.84,0,0,1,.81-4.46,10,10,0,0,1,2.24-3.42,9.83,9.83,0,0,1,3.41-2.18,12,12,0,0,1,4.35-.77,12.1,12.1,0,0,1,4.38.71A9.6,9.6,0,0,1,176.38,9a10,10,0,0,1,2.25,3.41,11.72,11.72,0,0,1,.81,4.45,11.36,11.36,0,0,1-.81,4.36,10.11,10.11,0,0,1-2.25,3.38,10.33,10.33,0,0,1-3.44,2.21,12.32,12.32,0,0,1-4.38.82,12,12,0,0,1-4.35-.77,9.93,9.93,0,0,1-3.41-2.16,10.09,10.09,0,0,1-2.24-3.37A11.33,11.33,0,0,1,157.75,16.94Zm3.82-.23a8.92,8.92,0,0,0,.5,3,7.19,7.19,0,0,0,1.43,2.4,6.79,6.79,0,0,0,2.21,1.59,7.44,7.44,0,0,0,5.76,0,6.77,6.77,0,0,0,2.23-1.59,7.19,7.19,0,0,0,1.43-2.4,8.92,8.92,0,0,0,.5-3,8.15,8.15,0,0,0-.5-2.86,7.23,7.23,0,0,0-1.43-2.32A6.42,6.42,0,0,0,171.47,10a7.56,7.56,0,0,0-5.76,0,6.43,6.43,0,0,0-2.21,1.56,7.23,7.23,0,0,0-1.43,2.32A8.15,8.15,0,0,0,161.57,16.71Z" fill="#464342"/><path d="M182.1,16.94a11.84,11.84,0,0,1,.81-4.46,9.73,9.73,0,0,1,5.64-5.6,12,12,0,0,1,4.35-.77,12.15,12.15,0,0,1,4.39.71A9.69,9.69,0,0,1,200.73,9,10,10,0,0,1,203,12.38a11.72,11.72,0,0,1,.81,4.45,11.36,11.36,0,0,1-.81,4.36,10.11,10.11,0,0,1-2.25,3.38,10.43,10.43,0,0,1-3.44,2.21,12.38,12.38,0,0,1-4.39.82,12,12,0,0,1-4.35-.77,9.72,9.72,0,0,1-5.64-5.53A11.33,11.33,0,0,1,182.1,16.94Zm3.81-.23a8.68,8.68,0,0,0,.51,3,6.88,6.88,0,0,0,1.43,2.4,6.75,6.75,0,0,0,2.2,1.59,7.05,7.05,0,0,0,2.88.58,7.14,7.14,0,0,0,2.89-.58A6.83,6.83,0,0,0,198,22.14a7,7,0,0,0,1.43-2.4,8.68,8.68,0,0,0,.5-3,7.93,7.93,0,0,0-.5-2.86A7.06,7.06,0,0,0,198,11.53,6.47,6.47,0,0,0,195.82,10a7.13,7.13,0,0,0-2.89-.57,7.05,7.05,0,0,0-2.88.57,6.39,6.39,0,0,0-2.2,1.56,6.9,6.9,0,0,0-1.43,2.32A7.93,7.93,0,0,0,185.91,16.71Z" fill="#464342"/><path d="M207.54,6.63h3.64V15.3h.17l8.46-8.67h4.91l-9.56,9.45,10.2,11h-5.11l-8.87-10h-.2v10h-3.64Z" fill="#464342"/></svg>